# xmcd
#
# Track frame offsets:
#	150
#	14803
#	32609
#	45731
#	57496
#	72542
#	87103
#	103077
#	118885
#	125773
#	144599
#	156632
#	166181
#	179828
#	211426
#	224766
#	249681
#	276238
#	296247
#	314258
#
# Disc length: 4414 seconds
#
# Revision: 0
# Processed by: cddbd v1.4PL0 Copyright (c) Steve Scherf et al.
# Submitted via: MusicWizard 6.0.2
#
DISCID=54113c14
DTITLE=Hoyd Axton - Hoyd Axton Live
DYEAR=1981
DGENRE=Country
TTITLE0=Roanoke
TTITLE1=Wild Bull Rider
TTITLE2=Flash Of Fire
TTITLE3=Boney Fingers
TTITLE4=Della And The Dealer
TTITLE5=When The Morning Comes
TTITLE6=Evangelina
TTITLE7=No No Song
TTITLE8=Mel Tillis and Roger Miller Story
TTITLE9=Lion In The Winter
TTITLE10=Jealous Man
TTITLE11=The Devil
TTITLE12=A Rusty Old Halo
TTITLE13=Bus Story
TTITLE14=An Old Greyhound
TTITLE15=Orange Blossom Special
TTITLE16=Will The Circle Be Unbroken
TTITLE17=Maybelline
TTITLE18=Never Been To Spain
TTITLE19=Joy To The World
EXTD=Hoyt Axton Live (1981)   Jeremiah JH-5002
EXTT0=
EXTT1=
EXTT2=
EXTT3=
EXTT4=
EXTT5=
EXTT6=
EXTT7=
EXTT8=
EXTT9=
EXTT10=
EXTT11=
EXTT12=
EXTT13=
EXTT14=
EXTT15=
EXTT16=
EXTT17=
EXTT18=
EXTT19=
PLAYORDER=
